<?xml version="1.0" encoding="UTF-8" standalone="no"?>
<svg
   xmlns:osb="http://www.openswatchbook.org/uri/2009/osb"
   xmlns:dc="http://purl.org/dc/elements/1.1/"
   xmlns:cc="http://creativecommons.org/ns#"
   xmlns:rdf="http://www.w3.org/1999/02/22-rdf-syntax-ns#"
   xmlns:svg="http://www.w3.org/2000/svg"
   xmlns="http://www.w3.org/2000/svg"
   xmlns:sodipodi="http://sodipodi.sourceforge.net/DTD/sodipodi-0.dtd"
   xmlns:inkscape="http://www.inkscape.org/namespaces/inkscape"
   width="100mm"
   height="100mm"
   viewBox="0 0 100 100"
   version="1.1"
   id="svg8"
   inkscape:version="1.0.2 (1.0.2+r75+1)"
   sodipodi:docname="holes.svg">
  <defs
     id="defs2">
    <linearGradient
       id="linearGradient2789"
       osb:paint="solid">
      <stop
         style="stop-color:#000000;stop-opacity:1;"
         offset="0"
         id="stop2787" />
    </linearGradient>
  </defs>
  <sodipodi:namedview
     id="base"
     pagecolor="#ffffff"
     bordercolor="#666666"
     borderopacity="1.0"
     inkscape:pageopacity="0.0"
     inkscape:pageshadow="2"
     inkscape:zoom="0.98994949"
     inkscape:cx="279.08117"
     inkscape:cy="51.551742"
     inkscape:document-units="px"
     inkscape:current-layer="layer1"
     inkscape:document-rotation="0"
     showgrid="true"
     units="mm"
     width="209mm"
     inkscape:window-width="960"
     inkscape:window-height="1044"
     inkscape:window-x="960"
     inkscape:window-y="0"
     inkscape:window-maximized="0">
    <inkscape:grid
       spacingx="9.9999999"
       spacingy="9.9999999"
       type="xygrid"
       id="grid10"
       units="mm" />
  </sodipodi:namedview>
  <metadata
     id="metadata5">
    <rdf:RDF>
      <cc:Work
         rdf:about="">
        <dc:format>image/svg+xml</dc:format>
        <dc:type
           rdf:resource="http://purl.org/dc/dcmitype/StillImage" />
        <dc:title></dc:title>
      </cc:Work>
    </rdf:RDF>
  </metadata>
  <g
     inkscape:label="Layer 1"
     inkscape:groupmode="layer"
     id="layer1">
    <path
       id="path843"
       style="fill:none;fill-opacity:1;stroke:none;stroke-width:4.465;stroke-miterlimit:4;stroke-dasharray:none;stroke-opacity:1"
       d="M 100,50 A 50,50 0 0 1 50,100 50,50 0 0 1 0,50 50,50 0 0 1 50,0 50,50 0 0 1 100,50 Z" />
    <path
       id="path3099"
       style="fill:none;fill-opacity:1;stroke:#000000;stroke-width:1.9;stroke-miterlimit:4;stroke-dasharray:none;stroke-opacity:1"
       d="M 100,50 A 50,50 0 0 1 50,100 50,50 0 0 1 0,50 50,50 0 0 1 50,0 50,50 0 0 1 100,50 Z" />
    <path
       id="path3101"
       style="fill:none;fill-opacity:1;stroke:#000000;stroke-width:1.9;stroke-miterlimit:4;stroke-dasharray:none;stroke-opacity:1"
       d="M 60,20 A 10,10 0 0 1 50,30 10,10 0 0 1 40,20 10,10 0 0 1 50,10 10,10 0 0 1 60,20 Z" />
    <path
       id="path3103"
       style="fill:none;fill-opacity:1;stroke:#000000;stroke-width:1.9;stroke-miterlimit:4;stroke-dasharray:none;stroke-opacity:1"
       d="M 30,50 A 10,10 0 0 1 20,60 10,10 0 0 1 10,50 10,10 0 0 1 20,40 10,10 0 0 1 30,50 Z" />
    <path
       id="path3105"
       style="fill:none;fill-opacity:1;stroke:#000000;stroke-width:1.9;stroke-miterlimit:4;stroke-dasharray:none;stroke-opacity:1"
       d="M 60,50 A 10,10 0 0 1 50,60 10,10 0 0 1 40,50 10,10 0 0 1 50,40 10,10 0 0 1 60,50 Z" />
    <path
       id="path3107"
       style="fill:none;fill-opacity:1;stroke:#000000;stroke-width:1.9;stroke-miterlimit:4;stroke-dasharray:none;stroke-opacity:1"
       d="M 90,50 A 10,10 0 0 1 80,60 10,10 0 0 1 70,50 10,10 0 0 1 80,40 10,10 0 0 1 90,50 Z" />
    <path
       id="path3109"
       style="fill:none;fill-opacity:1;stroke:#000000;stroke-width:1.9;stroke-miterlimit:4;stroke-dasharray:none;stroke-opacity:1"
       d="M 60,80 A 10,10 0 0 1 50,90 10,10 0 0 1 40,80 10,10 0 0 1 50,70 10,10 0 0 1 60,80 Z" />
  </g>
</svg>
